<svg xmlns="http://www.w3.org/2000/svg" version="1.1" xmlns:xlink="http://www.w3.org/1999/xlink" xmlns:svgjs="http://svgjs.dev/svgjs" width="128" height="128" viewBox="0 0 128 128"><g transform="matrix(0.8046875,0,0,0.8046875,12.760752631578946,12.760752631578946)"><svg viewBox="0 0 95 95" data-background-color="#ffffff" preserveAspectRatio="xMidYMid meet" height="128" width="128" xmlns="http://www.w3.org/2000/svg" xmlns:xlink="http://www.w3.org/1999/xlink"><g id="tight-bounds" transform="matrix(1,0,0,1,-0.24049999999999727,-0.24049999999999727)"><svg viewBox="0 0 95.481 95.481" height="95.481" width="95.481"><g><svg viewBox="0 0 95.481 95.481" height="95.481" width="95.481"><g><svg viewBox="0 0 95.481 95.481" height="95.481" width="95.481"><g id="textblocktransform"><svg viewBox="0 0 95.481 95.481" height="95.481" width="95.481" id="textblock"><g><svg viewBox="0 0 95.481 95.481" height="95.481" width="95.481"><g><svg viewBox="0 0 95.481 95.481" height="95.481" width="95.481"><g><svg xmlns="http://www.w3.org/2000/svg" xmlns:xlink="http://www.w3.org/1999/xlink" xml:space="preserve" version="1.1" style="shape-rendering:geometricPrecision;text-rendering:geometricPrecision;image-rendering:optimizeQuality;" viewBox="28 28 277 277" x="0" y="0" fill-rule="evenodd" clip-rule="evenodd" height="95.481" width="95.481" class="icon-icon-0" data-fill-palette-color="accent" id="icon-0"><g fill="#7fdbff" data-fill-palette-color="accent"><path class="" d="M75 120l45 0 0-45 0 0 0 0c0-13 5-25 14-33 8-9 20-14 33-14l0 0 0 0 0 0 0 0c13 0 24 5 33 14 8 8 14 20 14 33l0 0 0 0 0 45 44 0 1 0 0 0c12 0 24 5 33 14l0 0c8 8 13 20 13 33l0 0 0 0 0 0 0 0c0 13-5 24-13 33l0 0c-9 8-21 14-33 14l0 0-1 0-44 0 0 44 0 1 0 0c0 12-6 24-14 33l0 0c-9 8-20 13-33 13l0 0 0 0 0 0 0 0c-13 0-25-5-33-13l0 0c-9-9-14-21-14-33l0 0 0-1 0-44-45 0 0 0 0 0c-13 0-25-6-33-14-9-9-14-20-14-33l0 0 0 0 0 0 0 0c0-13 5-25 14-33 8-9 20-14 33-14l0 0 0 0z m114 94l-1 0c-7 3-14 5-21 5l0 0 0 0 0 0 0 0c-8 0-15-2-21-5l-2 0 0 44 0 1 0 0c0 6 2 11 7 16l0 0c4 4 9 6 16 6l0 0 0 0 0 0 0 0c6 0 12-2 16-6l0 0c4-5 6-10 6-16l0 0 0-1 0-44z m25-26l0 1 44 0 1 0 0 0c6 0 11-2 16-6l0 0c4-4 6-10 6-16l0 0 0 0 0 0 0 0c0-7-2-12-6-16l0 0c-5-5-10-7-16-7l0 0-1 0-44 0 0 1c3 7 5 14 5 22l0 0 0 0 0 0 0 0c0 7-2 14-5 21z m-94 1l0-1c-3-7-5-14-5-21l0 0 0 0 0 0 0 0c0-8 2-15 5-22l0-1-45 0 0 0 0 0c-6 0-12 2-16 7-4 4-7 9-7 16l0 0 0 0 0 0 0 0c0 6 3 12 7 16 4 4 10 6 16 6l0 0 0 0 45 0z m26-69c6-3 13-5 21-5l0 0 0 0 0 0 0 0c7 0 14 2 21 5l1 0 0-45 0 0 0 0c0-6-2-12-6-16-4-4-10-7-16-7l0 0 0 0 0 0 0 0c-7 0-12 3-16 7-5 4-7 10-7 16l0 0 0 0 0 45 2 0z m43 53l0-1 0 0 0-10 0 0 0-2c0-4-1-8-4-12-3-2-7-4-12-4l-1 0 0 0-10 0 0 0-2 0c-4 0-8 2-12 4-2 4-4 8-4 12l0 2 0 0 0 10 0 0 0 1c0 5 2 9 4 12 4 3 8 4 12 4l2 0 0 0 10 0 0 0 1 0c5 0 9-1 12-4 3-3 4-8 4-12z" fill="#7fdbff" fill-rule="nonzero" data-fill-palette-color="accent"></path></g></svg></g></svg></g></svg></g></svg></g></svg></g></svg></g><defs></defs></svg><rect width="95.481" height="95.481" fill="none" stroke="none" visibility="hidden"></rect></g></svg></g></svg>